<svg xmlns="http://www.w3.org/2000/svg" width="32" height="40">
    <path fill="#76e1fe" stroke="#384e54" stroke-linejoin="round" stroke-width="1.5" d="m16 4 12 16H4Z"/>
    <g transform="translate(0 -1012.362)">
        <ellipse cx="-907.357" cy="479.9" rx="3.579" ry="3.821" style="fill:#384e54" transform="scale(-1 1)rotate(-60.548)"/>
        <ellipse cx="-891.577" cy="507.846" rx="3.579" ry="3.821" style="fill:#384e54" transform="rotate(-60.548)"/>
        <path d="M16.092 1021.364c-1.106.01-2.21.05-3.316.09-5.934.22-10.776 4.94-10.776 10.908v20h28v-20c0-5.968-4.667-10.491-10.59-10.908a42 42 0 0 0-3.318-.09" style="fill:#384e54"/>
        <path d="M4.608 1025.046c.46.26 1.818 1.201 1.98 1.648.184.504.16 1.066-.114 1.551-.346.614-1.005.949-1.696.937-.34-.01-1.72-.638-2.043-.82-.977-.551-1.35-1.741-.833-2.657s1.728-1.21 2.706-.659" style="fill:#76e1fe"/>
        <path d="M16 1023.362c-9 0-12 3.716-12 9v20h24c-.049-7.356 0-18 0-20 0-5.285-3-9-12-9" style="fill:#76e1fe"/>
        <path d="M27.074 1025.046c-.46.26-1.818 1.201-1.98 1.648a1.85 1.85 0 0 0 .114 1.551c.346.614 1.005.949 1.696.937.34-.01 1.72-.638 2.043-.82.977-.551 1.35-1.741.833-2.657s-1.728-1.21-2.706-.659" style="fill:#76e1fe"/>
        <circle cx="21.176" cy="1030.354" r="4.654" style="fill:#fff"/>
        <circle cx="10.339" cy="1030.354" r="4.832" style="fill:#fff"/>
        <rect width="3.667" height="4.106" x="14.116" y="1035.225" ry=".726" style="fill:#fffcfb"/>
        <path d="M19.977 1035.7c0 .569-.433.856-1.138 1a7 7 0 0 1-1.003.117c-.564.032-1.208.031-1.892.031-.672 0-1.307 0-1.865-.029a8 8 0 0 1-.843-.084c-.814-.132-1.325-.417-1.325-1.034 0-1.16 1.806-2.1 4.033-2.1s4.033.94 4.033 2.1z" style="fill:#c38c74"/>
        <ellipse cx="15.944" cy="1033.85" rx="2.08" ry="1.344" style="fill:#23201f"/>
        <circle cx="12.414" cy="1030.354" r="1.963" style="fill:#171311"/>
        <circle cx="23.11" cy="1030.354" r="1.963" style="fill:#171311"/>
        <path d="M5.006 1027.273c-1.17-1.084-2.027-.772-2.045-.747" style="fill:none;stroke:#384e54;stroke-width:.39730874"/>
        <path d="M4.385 1026.915c-1.158.036-1.346.63-1.339.652M26.63 1027.172c1.171-1.083 2.028-.772 2.045-.746" style="fill:none;stroke:#384e54;stroke-width:.39730874"/>
        <path d="M27.322 1026.673c1.158.036 1.346.63 1.339.652" style="fill:none;stroke:#384e54;stroke-width:.39730874"/>
    </g>
</svg>